<svg width="20" height="22" viewBox="0 0 20 22" fill="none" xmlns="http://www.w3.org/2000/svg">
<g clip-path="url(#clip0_3_813)">
<path d="M9.99999 8.66669C8.15904 8.66669 6.66666 10.1591 6.66666 12C6.66666 13.841 8.15904 15.3334 9.99999 15.3334C11.8409 15.3334 13.3333 13.841 13.3333 12C13.3333 10.1591 11.8409 8.66669 9.99999 8.66669ZM9.99999 8.66669H17.6417M3.29166 7.05002L7.11666 13.6667M9.06666 20.2834L12.8833 13.6667M18.3333 12C18.3333 16.6024 14.6024 20.3334 9.99999 20.3334C5.39762 20.3334 1.66666 16.6024 1.66666 12C1.66666 7.39765 5.39762 3.66669 9.99999 3.66669C14.6024 3.66669 18.3333 7.39765 18.3333 12Z" stroke="#155EEF" stroke-width="1.67" stroke-linecap="round" stroke-linejoin="round"/>
</g>
<defs>
<clipPath id="clip0_3_813">
<rect width="20" height="20" fill="white" transform="translate(0 2)"/>
</clipPath>
</defs>
</svg>
