<svg width="20" height="22" viewBox="0 0 20 22" fill="none" xmlns="http://www.w3.org/2000/svg">
<path d="M8.33333 7.00001C8.33333 6.53977 8.70643 6.16667 9.16666 6.16667C11.9281 6.16667 14.1667 8.40525 14.1667 11.1667C14.1667 11.6269 13.7936 12 13.3333 12C12.8731 12 12.5 11.6269 12.5 11.1667C12.5 9.32572 11.0076 7.83334 9.16666 7.83334C8.70643 7.83334 8.33333 7.46024 8.33333 7.00001Z" fill="#2970FF"/>
<path fill-rule="evenodd" clip-rule="evenodd" d="M1.66666 11.1667C1.66666 7.02454 5.02453 3.66667 9.16666 3.66667C13.3088 3.66667 16.6667 7.02454 16.6667 11.1667C16.6667 12.9375 16.0529 14.565 15.0266 15.8481L18.0893 18.9107C18.4147 19.2362 18.4147 19.7638 18.0893 20.0893C17.7638 20.4147 17.2362 20.4147 16.9107 20.0893L13.8481 17.0266C12.565 18.0529 10.9375 18.6667 9.16666 18.6667C5.02453 18.6667 1.66666 15.3088 1.66666 11.1667ZM9.16666 5.33334C5.945 5.33334 3.33333 7.94501 3.33333 11.1667C3.33333 14.3883 5.945 17 9.16666 17C12.3883 17 15 14.3883 15 11.1667C15 7.94501 12.3883 5.33334 9.16666 5.33334Z" fill="#2970FF"/>
</svg>
