<svg width="20" height="22" viewBox="0 0 20 22" fill="none" xmlns="http://www.w3.org/2000/svg">
<path d="M2.5 8.5C2.5 7.09987 2.5 6.3998 2.77248 5.86502C3.01217 5.39462 3.39462 5.01217 3.86502 4.77248C4.3998 4.5 5.09987 4.5 6.5 4.5H13.5C14.9001 4.5 15.6002 4.5 16.135 4.77248C16.6054 5.01217 16.9878 5.39462 17.2275 5.86502C17.5 6.3998 17.5 7.09987 17.5 8.5V15.5C17.5 16.9001 17.5 17.6002 17.2275 18.135C16.9878 18.6054 16.6054 18.9878 16.135 19.2275C15.6002 19.5 14.9001 19.5 13.5 19.5H6.5C5.09987 19.5 4.3998 19.5 3.86502 19.2275C3.39462 18.9878 3.01217 18.6054 2.77248 18.135C2.5 17.6002 2.5 16.9001 2.5 15.5V8.5Z" stroke="#155EEF" stroke-width="1.67" stroke-linecap="round" stroke-linejoin="round"/>
<path d="M10 7L6.19467 12.1891C5.9438 12.5312 5.81837 12.7022 5.82242 12.8451C5.82594 12.9695 5.88488 13.0858 5.9831 13.1622C6.09595 13.25 6.30806 13.25 6.73227 13.25H10V17L13.8053 11.8109C14.0562 11.4688 14.1816 11.2978 14.1776 11.1549C14.1741 11.0305 14.1151 10.9142 14.0169 10.8378C13.904 10.75 13.6919 10.75 13.2677 10.75H10V7Z" stroke="#155EEF" stroke-width="1.67" stroke-linecap="round" stroke-linejoin="round"/>
</svg>
